<svg xmlns="http://www.w3.org/2000/svg" xmlns:xlink="http://www.w3.org/1999/xlink" width="500" zoomAndPan="magnify" viewBox="0 0 375 374.999991" height="500" preserveAspectRatio="xMidYMid meet" version="1.0"><defs><clipPath id="451d20ae75"><path d="M 125 22.5 L 254 22.5 L 254 249 L 125 249 Z M 125 22.5 " clip-rule="nonzero"/></clipPath><clipPath id="71c75f1737"><path d="M 0.222656 61.273438 L 328 61.273438 L 328 352.5 L 0.222656 352.5 Z M 0.222656 61.273438 " clip-rule="nonzero"/></clipPath></defs><path fill="#22c55e" d="M 318.402344 121.855469 C 318.402344 121.855469 311.613281 134.226562 314.492188 145.882812 C 317.371094 157.542969 329.394531 166.363281 329.394531 166.363281 C 329.394531 166.363281 335.925781 152.957031 333.046875 141.300781 C 330.167969 129.644531 318.402344 121.855469 318.402344 121.855469 " fill-opacity="1" fill-rule="nonzero"/><path fill="#22c55e" d="M 318.402344 121.855469 L 329.394531 166.363281 C 329.394531 166.363281 335.925781 152.957031 333.046875 141.300781 C 330.167969 129.644531 318.402344 121.855469 318.402344 121.855469 " fill-opacity="1" fill-rule="nonzero"/><path fill="#22c55e" d="M 374.777344 172.296875 C 374.777344 172.296875 365.710938 161.484375 353.804688 159.941406 C 341.894531 158.394531 329.3125 166.398438 329.3125 166.398438 C 329.3125 166.398438 339.4375 177.351562 351.34375 178.894531 C 363.25 180.4375 374.777344 172.296875 374.777344 172.296875 " fill-opacity="1" fill-rule="nonzero"/><path fill="#22c55e" d="M 374.777344 172.296875 L 329.3125 166.398438 C 329.3125 166.398438 339.4375 177.351562 351.34375 178.894531 C 363.25 180.4375 374.777344 172.296875 374.777344 172.296875 " fill-opacity="1" fill-rule="nonzero"/><path fill="#22c55e" d="M 319.445312 213.34375 L 309.769531 213.34375 C 309.769531 187.351562 320.773438 163.023438 338.488281 149.847656 L 344.261719 157.613281 C 328.957031 168.996094 319.445312 190.351562 319.445312 213.34375 " fill-opacity="1" fill-rule="nonzero"/><g clip-path="url(#451d20ae75)"><path fill="#4ade80" d="M 125.457031 98.308594 C 137.011719 54.90625 158.191406 22.5 158.191406 22.5 C 185.9375 84.617188 238.460938 76.78125 253.976562 146.738281 L 253.976562 248.917969 L 125.457031 152.023438 L 125.457031 98.308594 " fill-opacity="1" fill-rule="nonzero"/></g><g clip-path="url(#71c75f1737)"><path fill="#22c55e" d="M 279.378906 135.898438 C 249.589844 135.898438 233.535156 176.097656 231.09375 182.710938 C 229.839844 171.082031 224.847656 158.964844 214.027344 145.132812 C 183.898438 106.632812 103.550781 100.382812 43.292969 61.441406 C 43.292969 61.441406 30.945312 111.324219 61.128906 154.058594 C 61.128906 154.0625 69.042969 253.941406 137.222656 275.125 L 137.035156 275.304688 C 137.035156 275.304688 98.527344 293.1875 0.222656 272.464844 C 0.222656 272.464844 68.796875 383.957031 206.933594 343.808594 C 305.097656 315.277344 288.144531 193.792969 327.992188 178.566406 C 316.1875 161.171875 310.621094 135.898438 279.378906 135.898438 " fill-opacity="1" fill-rule="nonzero"/></g><path fill="#22c55e" d="M 284.003906 164.492188 C 288.242188 164.492188 291.679688 167.925781 291.679688 172.167969 C 291.679688 176.40625 288.242188 179.839844 284.003906 179.839844 C 279.765625 179.839844 276.328125 176.40625 276.328125 172.167969 C 276.328125 167.925781 279.765625 164.492188 284.003906 164.492188 " fill-opacity="1" fill-rule="nonzero"/><path fill="#22c55e" d="M 371.316406 129.695312 C 371.316406 129.695312 357.234375 128.804688 347.902344 136.363281 C 338.574219 143.925781 335.691406 158.554688 335.691406 158.554688 C 335.691406 158.554688 350.601562 158.777344 359.9375 151.214844 C 369.265625 143.65625 371.316406 129.695312 371.316406 129.695312 " fill-opacity="1" fill-rule="nonzero"/><path fill="#22c55e" d="M 371.316406 129.695312 L 335.691406 158.554688 C 335.691406 158.554688 350.601562 158.777344 359.9375 151.214844 C 369.265625 143.65625 371.316406 129.695312 371.316406 129.695312 " fill-opacity="1" fill-rule="nonzero"/></svg>